<mxfile host="app.diagrams.net" agent="Mozilla/5.0 (X11; Linux x86_64) AppleWebKit/537.36 (KHTML, like Gecko) Chrome/127.0.0.0 Safari/537.36" version="24.7.7">
  <diagram name="Page-1" id="DbFabeMuRyJ1SuXr5HRB">
    <mxGraphModel dx="1434" dy="762" grid="1" gridSize="10" guides="1" tooltips="1" connect="1" arrows="1" fold="1" page="1" pageScale="1" pageWidth="827" pageHeight="1169" math="0" shadow="0">
      <root>
        <mxCell id="0" />
        <mxCell id="1" parent="0" />
        <mxCell id="sjvX8V3f7xslVRkphScd-16" value="" style="edgeStyle=orthogonalEdgeStyle;rounded=0;orthogonalLoop=1;jettySize=auto;html=1;" edge="1" parent="1" source="sjvX8V3f7xslVRkphScd-2" target="sjvX8V3f7xslVRkphScd-3">
          <mxGeometry relative="1" as="geometry" />
        </mxCell>
        <mxCell id="sjvX8V3f7xslVRkphScd-2" value="Boolean Expression" style="strokeWidth=2;html=1;shape=mxgraph.flowchart.delay;whiteSpace=wrap;" vertex="1" parent="1">
          <mxGeometry x="50" y="240" width="100" height="40" as="geometry" />
        </mxCell>
        <mxCell id="sjvX8V3f7xslVRkphScd-7" style="edgeStyle=orthogonalEdgeStyle;rounded=0;orthogonalLoop=1;jettySize=auto;html=1;exitX=0.5;exitY=0;exitDx=0;exitDy=0;entryX=0.5;entryY=1;entryDx=0;entryDy=0;" edge="1" parent="1" source="sjvX8V3f7xslVRkphScd-3" target="sjvX8V3f7xslVRkphScd-4">
          <mxGeometry relative="1" as="geometry" />
        </mxCell>
        <mxCell id="sjvX8V3f7xslVRkphScd-3" value="Logical Synthesis" style="shape=trapezoid;perimeter=trapezoidPerimeter;whiteSpace=wrap;html=1;fixedSize=1;direction=south;" vertex="1" parent="1">
          <mxGeometry x="240" y="210" width="50" height="100" as="geometry" />
        </mxCell>
        <mxCell id="sjvX8V3f7xslVRkphScd-8" style="edgeStyle=orthogonalEdgeStyle;rounded=0;orthogonalLoop=1;jettySize=auto;html=1;exitX=0.5;exitY=0;exitDx=0;exitDy=0;entryX=0.5;entryY=1;entryDx=0;entryDy=0;" edge="1" parent="1" source="sjvX8V3f7xslVRkphScd-4" target="sjvX8V3f7xslVRkphScd-5">
          <mxGeometry relative="1" as="geometry" />
        </mxCell>
        <mxCell id="sjvX8V3f7xslVRkphScd-4" value="Technology Mapping" style="shape=trapezoid;perimeter=trapezoidPerimeter;whiteSpace=wrap;html=1;fixedSize=1;direction=south;" vertex="1" parent="1">
          <mxGeometry x="360" y="210" width="60" height="100" as="geometry" />
        </mxCell>
        <mxCell id="sjvX8V3f7xslVRkphScd-9" value="" style="edgeStyle=orthogonalEdgeStyle;rounded=0;orthogonalLoop=1;jettySize=auto;html=1;" edge="1" parent="1" source="sjvX8V3f7xslVRkphScd-5" target="sjvX8V3f7xslVRkphScd-6">
          <mxGeometry relative="1" as="geometry" />
        </mxCell>
        <mxCell id="sjvX8V3f7xslVRkphScd-5" value="Place" style="shape=trapezoid;perimeter=trapezoidPerimeter;whiteSpace=wrap;html=1;fixedSize=1;direction=south;" vertex="1" parent="1">
          <mxGeometry x="480" y="210" width="50" height="100" as="geometry" />
        </mxCell>
        <mxCell id="sjvX8V3f7xslVRkphScd-19" value="" style="edgeStyle=orthogonalEdgeStyle;rounded=0;orthogonalLoop=1;jettySize=auto;html=1;" edge="1" parent="1" source="sjvX8V3f7xslVRkphScd-6" target="sjvX8V3f7xslVRkphScd-18">
          <mxGeometry relative="1" as="geometry" />
        </mxCell>
        <mxCell id="sjvX8V3f7xslVRkphScd-6" value="Route" style="shape=trapezoid;perimeter=trapezoidPerimeter;whiteSpace=wrap;html=1;fixedSize=1;direction=south;" vertex="1" parent="1">
          <mxGeometry x="580" y="210" width="50" height="100" as="geometry" />
        </mxCell>
        <mxCell id="sjvX8V3f7xslVRkphScd-10" value="" style="endArrow=none;dashed=1;html=1;dashPattern=1 3;strokeWidth=2;rounded=0;" edge="1" parent="1">
          <mxGeometry width="50" height="50" relative="1" as="geometry">
            <mxPoint x="200" y="180" as="sourcePoint" />
            <mxPoint x="680" y="180" as="targetPoint" />
          </mxGeometry>
        </mxCell>
        <mxCell id="sjvX8V3f7xslVRkphScd-12" value="" style="endArrow=none;dashed=1;html=1;dashPattern=1 3;strokeWidth=2;rounded=0;" edge="1" parent="1">
          <mxGeometry width="50" height="50" relative="1" as="geometry">
            <mxPoint x="200" y="340" as="sourcePoint" />
            <mxPoint x="200" y="180" as="targetPoint" />
          </mxGeometry>
        </mxCell>
        <mxCell id="sjvX8V3f7xslVRkphScd-14" value="" style="endArrow=none;dashed=1;html=1;dashPattern=1 3;strokeWidth=2;rounded=0;" edge="1" parent="1">
          <mxGeometry width="50" height="50" relative="1" as="geometry">
            <mxPoint x="670" y="340" as="sourcePoint" />
            <mxPoint x="670" y="180" as="targetPoint" />
          </mxGeometry>
        </mxCell>
        <mxCell id="sjvX8V3f7xslVRkphScd-15" value="" style="endArrow=none;dashed=1;html=1;dashPattern=1 3;strokeWidth=2;rounded=0;" edge="1" parent="1">
          <mxGeometry width="50" height="50" relative="1" as="geometry">
            <mxPoint x="200" y="340" as="sourcePoint" />
            <mxPoint x="670" y="340" as="targetPoint" />
          </mxGeometry>
        </mxCell>
        <mxCell id="sjvX8V3f7xslVRkphScd-22" value="" style="edgeStyle=orthogonalEdgeStyle;rounded=0;orthogonalLoop=1;jettySize=auto;html=1;" edge="1" parent="1" source="sjvX8V3f7xslVRkphScd-18" target="sjvX8V3f7xslVRkphScd-21">
          <mxGeometry relative="1" as="geometry" />
        </mxCell>
        <mxCell id="sjvX8V3f7xslVRkphScd-23" value="Flash" style="edgeLabel;html=1;align=center;verticalAlign=middle;resizable=0;points=[];" vertex="1" connectable="0" parent="sjvX8V3f7xslVRkphScd-22">
          <mxGeometry x="-0.075" y="4" relative="1" as="geometry">
            <mxPoint as="offset" />
          </mxGeometry>
        </mxCell>
        <mxCell id="sjvX8V3f7xslVRkphScd-18" value="Bitstream Generation" style="shape=delay;whiteSpace=wrap;html=1;" vertex="1" parent="1">
          <mxGeometry x="720" y="240" width="80" height="40" as="geometry" />
        </mxCell>
        <mxCell id="sjvX8V3f7xslVRkphScd-21" value="FPGA Fabric" style="rounded=1;whiteSpace=wrap;html=1;" vertex="1" parent="1">
          <mxGeometry x="710" y="360" width="100" height="40" as="geometry" />
        </mxCell>
      </root>
    </mxGraphModel>
  </diagram>
</mxfile>
